<svg width="200.000000" height="200.000000" viewBox="0 0 200 200" fill="none" xmlns="http://www.w3.org/2000/svg">
	<desc>
			Created with Pixso.
	</desc>
	<g clip-path="url(#clip2_1)">
		<g filter="url(#filter_3_66_dd)">
			<mask id="mask2_38" mask-type="alpha" maskUnits="userSpaceOnUse" x="-20.000015" y="-7.000038" width="259.857605" height="248.700775">
				<ellipse cx="68.056969" cy="93.536919" rx="67.874352" ry="68.000351" transform="rotate(10.0194 68.057 93.5369)" fill="#00CCFF"/>
				<rect x="54.303757" y="147.212982" rx="5.500000" width="67.874352" height="12.750066" transform="rotate(10.0194 54.303757 147.212982)" fill="#00CCFF"/>
				<rect x="97.241119" y="123.509186" rx="5.500000" width="67.874352" height="12.750066" transform="rotate(10.0194 97.241119 123.509186)" fill="#00CCFF"/>
				<rect x="175.686859" y="106.078705" rx="5.500000" width="25.452881" height="12.750066" transform="rotate(10.0194 175.686859 106.078705)" fill="#00CCFF"/>
				<rect x="106.758926" y="93.900871" rx="5.500000" width="67.874352" height="12.750066" transform="rotate(10.0194 106.758926 93.900871)" fill="#00CCFF"/>
				<rect x="101.655624" y="61.709351" rx="5.500000" width="67.874352" height="12.750066" transform="rotate(10.0194 101.655624 61.709351)" fill="#00CCFF"/>
				<rect x="140.415604" y="37.267414" rx="5.500000" width="21.210735" height="12.750066" transform="rotate(10.0194 140.415604 37.267414)" fill="#00CCFF"/>
				<rect x="75.665070" y="25.827591" rx="5.500000" width="63.632206" height="12.750066" transform="rotate(10.0194 75.665070 25.827591)" fill="#00CCFF"/>
			</mask>
			<g mask="url(#mask2_38)">
				<rect x="-5.615150" y="-6.999992" width="212.094711" height="212.513733" fill="url(#paint_linear_2_46_0)"/>
			</g>
			<g mask="url(#mask2_38)">
				<ellipse cx="134.848953" cy="29.623528" rx="67.434288" ry="67.440468" transform="rotate(-43.7366 134.849 29.6235)" stroke="#333333"/>
				<line x1="126.026718" y1="103.473083" x2="126.763657" y2="90.743652" stroke="#333333"/>
				<line x1="113.719635" y1="101.329849" x2="116.434891" y2="88.872650" stroke="#333333"/>
				<line x1="101.094620" y1="95.775963" x2="107.131592" y2="84.551239" stroke="#333333"/>
				<line x1="90.128815" y1="88.885857" x2="97.843948" y2="78.745598" stroke="#333333"/>
				<line x1="81.429962" y1="79.758736" x2="90.633255" y2="70.952614" stroke="#333333"/>
				<line x1="72.641174" y1="70.537231" x2="84.109909" y2="65.011703" stroke="#333333"/>
				<line x1="66.885620" y1="59.882660" x2="78.354355" y2="54.357143" stroke="#333333"/>
				<line x1="62.663956" y1="47.760399" x2="75.208450" y2="45.616386" stroke="#333333"/>
				<line x1="61.440948" y1="35.707390" x2="74.165749" y2="35.556038" stroke="#333333"/>
				<ellipse cx="0.634178" cy="158.046158" rx="67.434288" ry="67.440468" transform="rotate(-43.7366 0.634178 158.046)" stroke="#333333"/>
				<line x1="61.745239" y1="152.956116" x2="74.470047" y2="152.804779" stroke="#333333"/>
				<line x1="59.720810" y1="143.139252" x2="72.265320" y2="140.995239" stroke="#333333"/>
				<line x1="56.196960" y1="133.287750" x2="67.665695" y2="127.762222" stroke="#333333"/>
				<line x1="50.406876" y1="124.135468" x2="60.871742" y2="116.880310" stroke="#333333"/>
				<line x1="43.849854" y1="115.717072" x2="53.053154" y2="106.910942" stroke="#333333"/>
				<line x1="35.668976" y1="108.671974" x2="43.384109" y2="98.531700" stroke="#333333"/>
				<line x1="27.419754" y1="103.093620" x2="33.456734" y2="91.868896" stroke="#333333"/>
				<line x1="18.494331" y1="99.882965" x2="21.209595" y2="87.425751" stroke="#333333"/>
				<line x1="9.147346" y1="97.768509" x2="9.884293" y2="85.039070" stroke="#333333"/>
			</g>
			<g mask="url(#mask2_38)">
				<rect x="44.227097" y="89.693764" rx="5.500000" width="45.600365" height="17.001099" fill="#FFFFFF"/>
				<rect x="44.227104" y="46.128448" rx="5.500000" width="56.205097" height="17.001099" fill="#FFFFFF"/>
				<rect rx="5.500000" width="99.881454" height="16.967577" transform="matrix(0 -1 -1 0 55.8923 146.01)" fill="#FFFFFF"/>
			</g>
		</g>
	</g>
	<defs>
		<filter id="filter_3_66_dd" x="-24.000015" y="-7.000038" width="267.857605" height="256.700806" filterUnits="userSpaceOnUse" color-interpolation-filters="sRGB">
			<feFlood flood-opacity="0" result="BackgroundImageFix"/>
			<feColorMatrix in="SourceAlpha" type="matrix" values="0 0 0 0 0 0 0 0 0 0 0 0 0 0 0 0 0 0 127 0"/>
			<feOffset dx="0" dy="4"/>
			<feGaussianBlur stdDeviation="1.33333"/>
			<feColorMatrix type="matrix" values="0 0 0 0 0 0 0 0 0 0 0 0 0 0 0 0 0 0 0.2 0"/>
			<feBlend mode="normal" in2="BackgroundImageFix" result="effect_dropShadow_1"/>
			<feBlend mode="normal" in="SourceGraphic" in2="effect_dropShadow_1" result="shape"/>
		</filter>
		<clipPath id="clip2_1">
			<rect width="200.000000" height="200.000000" fill="white"/>
		</clipPath>
		<linearGradient id="paint_linear_2_46_0" x1="0.499141" y1="82.004990" x2="198.499023" y2="117.005005" gradientUnits="userSpaceOnUse">
			<stop offset="0.165633" stop-color="#33AAFF"/>
			<stop offset="0.967202" stop-color="#FF00AA" stop-opacity="0.749020"/>
		</linearGradient>
	</defs>
</svg>
